<svg xmlns="http://www.w3.org/2000/svg" width="161.788" height="31.136" viewBox="0 0 161.788 31.136">
  <path id="Union_47" data-name="Union 47" d="M4.462,25.723a14.954,14.954,0,0,1,0-21.309A15.349,15.349,0,0,1,26,4.414a14.951,14.951,0,0,1,0,21.309,15.351,15.351,0,0,1-21.542,0ZM5.054,7.51a2.483,2.483,0,0,0,.171.9A11.832,11.832,0,0,0,6.706,23.5a12.153,12.153,0,0,0,17.054,0,11.839,11.839,0,0,0,0-16.87A12.163,12.163,0,0,0,8.5,5.169,2.539,2.539,0,0,0,5.054,7.51ZM129.832,27.771A3.79,3.79,0,0,1,128.7,27.3a2.228,2.228,0,0,1-.713-.717,1.721,1.721,0,0,1-.248-.9,2.047,2.047,0,0,1,.268-1.072,2.423,2.423,0,0,1,.709-.752,3.673,3.673,0,0,1,1.012-.478,6.449,6.449,0,0,1,1.174-.243,8.164,8.164,0,0,1,2.266.059,2.277,2.277,0,0,1-.051-.5,2.708,2.708,0,0,1,.257-1.067,2.628,2.628,0,0,1-.747.346,3.689,3.689,0,0,1-1.029.124,2.756,2.756,0,0,1-.957-.167,2.336,2.336,0,0,1-.8-.5,2.363,2.363,0,0,1-.554-.842,3.165,3.165,0,0,1-.205-1.191,3.44,3.44,0,0,1,.243-1.268,3.248,3.248,0,0,1,.726-1.106,3.572,3.572,0,0,1,1.2-.781,4.336,4.336,0,0,1,1.656-.294,3.926,3.926,0,0,1,.944.111,3.039,3.039,0,0,1,.832.342h2.493l-.1.752a.692.692,0,0,1-.453.6l-.828.248a3.237,3.237,0,0,1,.068.674,2.608,2.608,0,0,1-.162.969,6.067,6.067,0,0,1-.364.756q-.2.35-.363.713a2.068,2.068,0,0,0-.162.85,1.555,1.555,0,0,0,.132.644q.132.294.286.6a7.032,7.032,0,0,1,.286.657,2.265,2.265,0,0,1,.132.8,2.893,2.893,0,0,1-.3,1.26,3.134,3.134,0,0,1-.845,1.041,4.138,4.138,0,0,1-1.354.708,5.881,5.881,0,0,1-1.819.261A6,6,0,0,1,129.832,27.771Zm2.037-3.389a3.95,3.95,0,0,0-1.093.153,1.323,1.323,0,0,0-.615.364.743.743,0,0,0-.192.49.818.818,0,0,0,.371.726,2.192,2.192,0,0,0,1.183.247,2.731,2.731,0,0,0,.807-.112,1.916,1.916,0,0,0,.623-.311,1.447,1.447,0,0,0,.406-.478,1.276,1.276,0,0,0,.145-.6c0-.063,0-.121,0-.175s-.007-.107-.014-.158A8.984,8.984,0,0,0,132,24.38Zm.158-6.716a1.4,1.4,0,0,0-.444.423,1.939,1.939,0,0,0-.269.61,2.844,2.844,0,0,0-.09.713,1.512,1.512,0,0,0,.269.957.935.935,0,0,0,.781.341,1.11,1.11,0,0,0,.615-.17,1.491,1.491,0,0,0,.445-.449,2.2,2.2,0,0,0,.273-.627,2.932,2.932,0,0,0,.1-.7,1.425,1.425,0,0,0-.269-.926.97.97,0,0,0-.8-.329A1.177,1.177,0,0,0,132.026,17.666Zm10.993,6.839a1.988,1.988,0,0,1-.6-1.455v-.141c0-.054,0-.133.013-.238s.022-.245.043-.419.047-.4.081-.68l.469-3.791h-.768a.354.354,0,0,1-.278-.12.425.425,0,0,1-.072-.358l.111-.922,1.332-.256.725-2.28a.5.5,0,0,1,.521-.384h1.264l-.333,2.681h2.058l-.2,1.639h-2.057l-.453,3.663c-.028.233-.051.419-.068.555s-.03.242-.038.316-.014.123-.014.149v.056a.751.751,0,0,0,.137.473.487.487,0,0,0,.41.176.829.829,0,0,0,.265-.039,1.129,1.129,0,0,0,.192-.086l.149-.086a.3.3,0,0,1,.145-.039.235.235,0,0,1,.163.048.494.494,0,0,1,.1.157l.512,1.127a3.642,3.642,0,0,1-1.085.581,3.746,3.746,0,0,1-1.187.2A2.179,2.179,0,0,1,143.02,24.505Zm6.267.325a2.153,2.153,0,0,1-.772-.58,2.84,2.84,0,0,1-.526-.982,4.528,4.528,0,0,1-.192-1.388,6.052,6.052,0,0,1,.2-1.541,5.925,5.925,0,0,1,1.456-2.613,5.7,5.7,0,0,1,4.162-1.772,8.446,8.446,0,0,1,1.23.09,5.885,5.885,0,0,1,1.212.311l-1.059,8.538H153.74a1.012,1.012,0,0,1-.372-.059.624.624,0,0,1-.239-.163.565.565,0,0,1-.123-.239,1.25,1.25,0,0,1-.034-.3l.034-.9a4.906,4.906,0,0,1-1.259,1.307,2.652,2.652,0,0,1-1.533.478A2.3,2.3,0,0,1,149.287,24.83Zm2.737-6.921a3.121,3.121,0,0,0-.986.837,4.084,4.084,0,0,0-.649,1.229,4.617,4.617,0,0,0-.235,1.478,2.318,2.318,0,0,0,.274,1.284.833.833,0,0,0,.717.4,1.049,1.049,0,0,0,.627-.231,2.547,2.547,0,0,0,.585-.632,5.513,5.513,0,0,0,.5-.943,9.576,9.576,0,0,0,.4-1.156l.324-2.562a1.469,1.469,0,0,0-.154-.008h-.154A2.617,2.617,0,0,0,152.023,17.909Zm4.833,6.985L158.4,12.163h2.322L159.17,24.894Zm-19.451,0,1.05-8.8h2.322l-1.05,8.8Zm-13.072,0,1.05-8.8h2.323l-1.05,8.8Zm-11.791,0L114.071,12.5h4.406a5.486,5.486,0,0,1,2.156.406,4.71,4.71,0,0,1,1.631,1.122,4.951,4.951,0,0,1,1.029,1.7,6.255,6.255,0,0,1,.358,2.147,8.082,8.082,0,0,1-.226,1.934,7.173,7.173,0,0,1-.649,1.7,6.422,6.422,0,0,1-1.021,1.4,6.254,6.254,0,0,1-1.345,1.064,6.53,6.53,0,0,1-1.623.674,7.063,7.063,0,0,1-1.84.235Zm2.731-1.939h1.913a3.676,3.676,0,0,0,1.622-.35,3.493,3.493,0,0,0,1.238-1,4.672,4.672,0,0,0,.789-1.575,7.252,7.252,0,0,0,.278-2.088,5.11,5.11,0,0,0-.193-1.451,3.177,3.177,0,0,0-.559-1.106,2.492,2.492,0,0,0-.9-.7,2.886,2.886,0,0,0-1.226-.248h-1.921Zm-9.909,1.522h-1.9a1.9,1.9,0,0,1-1.9-1.885V11.921h1.9a1.9,1.9,0,0,1,1.9,1.882V24.477Zm-7.62,0h-1.9a1.9,1.9,0,0,1-1.9-1.883V11.127L88.365,21.693a1.914,1.914,0,0,1-3.277,0L79.516,11.127V22.595a1.9,1.9,0,0,1-1.9,1.883h-1.9V5.641h4.317a1.266,1.266,0,0,1,1.118.666l5.584,10.387L92.31,6.307a1.267,1.267,0,0,1,1.12-.666h4.315V24.477Zm-56.354,0V9.408H35.677V5.641H50.913V9.408H45.2V22.595a1.9,1.9,0,0,1-1.9,1.883Zm11.425-9.464a9.521,9.521,0,1,1,9.521,9.417A9.48,9.48,0,0,1,52.816,15.013Zm3.809,0a5.713,5.713,0,1,0,5.712-5.648A5.687,5.687,0,0,0,56.624,15.013ZM9.537,22.589a4.9,4.9,0,0,1-1.8-2.222,9.575,9.575,0,0,1-.34-3.914A18.972,18.972,0,0,0,7.2,11.509a2.439,2.439,0,0,1,.01-1.693A.847.847,0,0,1,7.8,9.433a.836.836,0,0,1,.115-.008c1.1,0,1.425,2.13,1.428,2.152s.292,1.829.409,2.5a.678.678,0,0,0,.262.434.714.714,0,0,0,.35.084c.9,0,2.232-1.253,3.083-2.491,1.352-1.976,3.5-4.672,3.521-4.7a1.77,1.77,0,0,1,1.217-.755,1.089,1.089,0,0,1,.646.229.853.853,0,0,1,.31.53.963.963,0,0,1-.253.729c-.419.52-1.814,2.437-2.65,3.583-.222.305-.406.558-.523.717a.576.576,0,0,1-.056.087.3.3,0,0,0-.058.319.289.289,0,0,0,.266.141.422.422,0,0,0,.227-.068c.786-.5,4.264-3.559,4.3-3.589A2.432,2.432,0,0,1,21.776,8.6a.85.85,0,0,1,.6.25.646.646,0,0,1,.23.5c-.021.476-.614.948-.968,1.229l-.072.058c-.779.623-2.065,1.8-3.821,3.507l-.006.006c-.192.186-.276.355-.231.465a.207.207,0,0,0,.211.105.813.813,0,0,0,.341-.091.346.346,0,0,1,.031-.015l.039-.017c1-.5,4.33-2.225,4.47-2.3a2.468,2.468,0,0,1,.918-.23.687.687,0,0,1,.688.387c.281.714-.409,1.142-.74,1.347-.049.031-.093.058-.122.08-.22.2-3.613,2.16-4.648,2.755-.152.089-.293.274-.257.419.019.074.094.166.342.175h.012a26.036,26.036,0,0,0,3.552-1.1c.337-.119.627-.22.844-.294l.007,0a1.8,1.8,0,0,1,.551-.107.621.621,0,0,1,.656.5c.176.707-.909,1.067-.92,1.07l-4.937,2.047a4.135,4.135,0,0,0-1.587,1.16c-.238.284-.472.55-.717.81a4.835,4.835,0,0,1-2.63,1.919,2.871,2.871,0,0,1-.64.143l-.023,0-.031.005a4.994,4.994,0,0,1-.654.044A4.841,4.841,0,0,1,9.537,22.589ZM139.323,14.9a1.394,1.394,0,0,1-.444-.308,1.535,1.535,0,0,1-.308-.452,1.346,1.346,0,0,1-.115-.555,1.3,1.3,0,0,1,.12-.551,1.59,1.59,0,0,1,.311-.456,1.478,1.478,0,0,1,.444-.312,1.255,1.255,0,0,1,.526-.115,1.358,1.358,0,0,1,.542.112,1.444,1.444,0,0,1,.457.307,1.584,1.584,0,0,1,.316.457,1.332,1.332,0,0,1,.12.559,1.258,1.258,0,0,1-.124.555,1.621,1.621,0,0,1-.324.452,1.481,1.481,0,0,1-.462.308,1.35,1.35,0,0,1-.534.111A1.289,1.289,0,0,1,139.323,14.9Zm-13.073,0a1.394,1.394,0,0,1-.444-.308,1.552,1.552,0,0,1-.308-.452,1.345,1.345,0,0,1-.115-.555,1.3,1.3,0,0,1,.12-.551,1.607,1.607,0,0,1,.311-.456,1.482,1.482,0,0,1,.445-.312,1.251,1.251,0,0,1,.525-.115,1.352,1.352,0,0,1,.542.112,1.434,1.434,0,0,1,.457.307,1.583,1.583,0,0,1,.316.457,1.318,1.318,0,0,1,.12.559,1.258,1.258,0,0,1-.124.555,1.6,1.6,0,0,1-.324.452,1.482,1.482,0,0,1-.462.308,1.346,1.346,0,0,1-.533.111A1.293,1.293,0,0,1,126.25,14.9ZM100.922,8.155a2.539,2.539,0,1,1,2.539,2.51A2.529,2.529,0,0,1,100.922,8.155ZM7.589,8.766a1.265,1.265,0,0,1-.9-.371,1.239,1.239,0,0,1-.37-.888,1.272,1.272,0,0,1,2.169-.881,1.239,1.239,0,0,1,.37.888A1.264,1.264,0,0,1,7.594,8.766Zm0-1.883a.631.631,0,0,0-.634.626.624.624,0,0,0,.185.445.636.636,0,0,0,1.085-.441.621.621,0,0,0-.185-.444A.628.628,0,0,0,7.6,6.883h0Z" transform="translate(0.499 0.5)" fill="#fff" stroke="rgba(0,0,0,0)" stroke-miterlimit="10" stroke-width="1"/>
</svg>
